<svg version="1.2" xmlns="http://www.w3.org/2000/svg" viewBox="0 0 64 36" width="64" height="36">
	<defs>
		<clipPath clipPathUnits="userSpaceOnUse" id="cp1">
			<path d="m0 18.4c0 9.17 14.33 16.6 32 16.6 17.67 0 32-7.43 32-16.6 0-9.17-14.33-16.61-32-16.61-17.67 0-32 7.44-32 16.61z"/>
		</clipPath>
		<radialGradient id="g1" cx="0" cy="0" r="1" gradientUnits="userSpaceOnUse" gradientTransform="matrix(42.02,0,0,42.02,19.213,7.631)">
			<stop offset="0" stop-color="#aeb2d5"/>
			<stop offset=".3" stop-color="#aeb2d5"/>
			<stop offset=".75" stop-color="#484c89"/>
			<stop offset="1" stop-color="#484c89"/>
		</radialGradient>
		<clipPath clipPathUnits="userSpaceOnUse" id="cp2">
			<path d="m-1.33-0.1h66.66v36.99h-66.66z"/>
		</clipPath>
		<clipPath clipPathUnits="userSpaceOnUse" id="cp3">
			<path d="m-1.33-0.1h66.66v36.99h-66.66z"/>
		</clipPath>
	</defs>
	<style>
		.s0 { fill: url(#g1) } 
		.s1 { fill: #777bb3 } 
		.s2 { fill: #000000 } 
		.s3 { fill: #ffffff } 
	</style>
	<g>
		<g id="Clip-Path" clip-path="url(#cp1)">
			<g>
				<path class="s0" d="m0 18.4c0 9.17 14.33 16.6 32 16.6 17.67 0 32-7.43 32-16.6 0-9.17-14.33-16.61-32-16.61-17.67 0-32 7.44-32 16.61z"/>
			</g>
		</g>
		<g id="Clip-Path" clip-path="url(#cp2)">
			<g>
				<path class="s1" d="m32 33.77c16.98 0 30.75-6.88 30.75-15.37 0-8.49-13.77-15.37-30.75-15.37-16.98 0-30.75 6.88-30.75 15.37 0 8.49 13.77 15.37 30.75 15.37z"/>
			</g>
		</g>
		<g id="Clip-Path" clip-path="url(#cp3)">
			<g>
				<path class="s2" d="m10.09 28.04q-0.17-0.01-0.27-0.13-0.03-0.03-0.04-0.06-0.02-0.03-0.03-0.07-0.01-0.04-0.01-0.08 0-0.03 0.01-0.07l3.27-16.64q0.02-0.06 0.05-0.11 0.03-0.05 0.07-0.09 0.05-0.04 0.11-0.06 0.06-0.02 0.12-0.02h7.06q3.34 0.01 4.91 1.77 1.57 1.78 0.96 4.9-0.25 1.27-0.85 2.33-0.6 1.06-1.56 1.93-1.15 1.07-2.57 1.52-1.4 0.45-3.54 0.45h-2.86l-0.82 4.15q-0.01 0.06-0.04 0.11-0.03 0.05-0.08 0.09-0.04 0.04-0.1 0.06-0.06 0.02-0.12 0.02c0 0-3.67 0-3.67 0zm7.3-7.74q2.1 0 3.09-0.75 0.99-0.75 1.34-2.55 0.33-1.69-0.25-2.33-0.59-0.64-2.53-0.65h-2.23l-1.24 6.28c0 0 1.82 0 1.82 0z"/>
				<path class="s3" d="m20.43 10.37h-7.06q-0.13 0-0.24 0.04-0.11 0.04-0.21 0.12-0.09 0.07-0.15 0.18-0.06 0.1-0.09 0.22l-3.27 16.63q-0.03 0.15 0 0.3 0.04 0.15 0.14 0.27 0.1 0.12 0.24 0.18 0.14 0.07 0.3 0.07h3.67q0.12 0 0.24-0.04 0.11-0.04 0.2-0.12 0.1-0.07 0.16-0.18 0.06-0.1 0.08-0.21l0.77-3.87h2.57q2.19-0.01 3.64-0.47 1.49-0.48 2.71-1.6 1-0.91 1.63-2.01 0.62-1.11 0.88-2.43 0.65-3.29-1.03-5.19-1.68-1.88-5.18-1.89zm0 0.69q3.19 0 4.65 1.65 1.47 1.65 0.88 4.61-0.24 1.21-0.81 2.22-0.57 1.01-1.49 1.85-1.11 1.02-2.45 1.45-1.35 0.43-3.43 0.43h-3.15l-0.87 4.42h-3.67l3.28-16.63c0 0 7.06 0 7.06 0zm-5.28 9.59h2.24q2.22 0 3.31-0.83 1.08-0.83 1.46-2.76 0.37-1.85-0.33-2.62-0.69-0.76-2.79-0.76h-2.52c0 0-1.37 6.97-1.37 6.97zm1.95-6.28h1.94c1.55 0 2.09 0.33 2.28 0.53 0.3 0.34 0.36 1.04 0.16 2.03q-0.33 1.68-1.21 2.35-0.9 0.68-2.88 0.68h-1.4c0 0 1.11-5.59 1.11-5.59z"/>
				<path class="s2" d="m34.73 23.61q-0.16 0-0.27-0.12-0.1-0.13-0.07-0.28l1.45-7.37c0.14-0.7 0.1-1.2-0.1-1.41-0.12-0.13-0.49-0.35-1.57-0.35h-2.63l-1.82 9.26q-0.01 0.05-0.05 0.11-0.03 0.05-0.07 0.08-0.05 0.04-0.11 0.06-0.05 0.02-0.11 0.02h-3.65q-0.08 0-0.15-0.03-0.07-0.03-0.12-0.09-0.05-0.06-0.07-0.14-0.01-0.07 0-0.14l3.28-16.64q0.01-0.06 0.04-0.11 0.03-0.05 0.08-0.09 0.05-0.04 0.1-0.06 0.06-0.02 0.12-0.02h3.64q0.08 0 0.15 0.03 0.07 0.04 0.12 0.09 0.05 0.06 0.07 0.14 0.02 0.07 0.01 0.15l-0.8 4.01h2.83c2.15 0 3.61 0.38 4.47 1.15q1.3 1.19 0.8 3.73l-1.53 7.75q-0.01 0.05-0.04 0.11-0.03 0.05-0.08 0.09-0.04 0.03-0.1 0.05-0.06 0.02-0.12 0.02c0 0-3.7 0-3.7 0z"/>
				<path class="s3" d="m32.65 5.95h-3.64q-0.12 0-0.24 0.04-0.11 0.04-0.2 0.11-0.1 0.08-0.16 0.18-0.06 0.1-0.08 0.22l-3.28 16.64q-0.03 0.15 0.01 0.3 0.04 0.15 0.13 0.27 0.1 0.11 0.24 0.18 0.14 0.07 0.3 0.07h3.65q0.12 0 0.23-0.04 0.11-0.05 0.21-0.12 0.09-0.08 0.15-0.18 0.06-0.1 0.09-0.22l1.77-8.98h2.34c1.08 0 1.31 0.23 1.32 0.24 0.06 0.07 0.15 0.39 0.01 1.12l-1.45 7.36q-0.03 0.15 0.01 0.3 0.04 0.15 0.13 0.27 0.1 0.11 0.24 0.18 0.14 0.07 0.3 0.07h3.7q0.12 0 0.24-0.04 0.11-0.05 0.2-0.12 0.1-0.08 0.16-0.18 0.06-0.1 0.08-0.22l1.53-7.74q0.53-2.74-0.91-4.05c-0.92-0.84-2.45-1.24-4.7-1.24h-2.4l0.71-3.61q0.03-0.15-0.01-0.3-0.04-0.15-0.14-0.26-0.1-0.12-0.24-0.19-0.14-0.06-0.3-0.06zm0.01 0.68l-0.88 4.43h3.25q3.07 0 4.23 1.05 1.16 1.05 0.7 3.42l-1.53 7.74h-3.7l1.45-7.36q0.25-1.26-0.18-1.71-0.43-0.46-1.83-0.46h-2.92l-1.87 9.53h-3.65l3.28-16.64c0 0 3.65 0 3.65 0z"/>
				<path class="s2" d="m38.77 28.04q-0.16-0.01-0.27-0.13-0.02-0.03-0.04-0.06-0.02-0.03-0.03-0.07-0.01-0.04-0.01-0.08 0-0.03 0.01-0.07l3.28-16.64q0.01-0.06 0.04-0.11 0.03-0.05 0.08-0.09 0.04-0.04 0.1-0.06 0.06-0.02 0.12-0.02h7.06q3.35 0.01 4.92 1.77 1.57 1.78 0.96 4.9-0.26 1.27-0.85 2.33-0.6 1.06-1.57 1.93-1.15 1.07-2.57 1.52-1.4 0.45-3.54 0.45h-2.86l-0.82 4.15q-0.01 0.06-0.04 0.11-0.03 0.05-0.08 0.09-0.04 0.04-0.1 0.06-0.06 0.02-0.12 0.02c0 0-3.67 0-3.67 0zm7.3-7.74q2.1 0 3.1-0.75 0.98-0.75 1.34-2.55 0.33-1.69-0.25-2.33-0.6-0.64-2.54-0.65h-2.23l-1.24 6.28c0 0 1.82 0 1.82 0z"/>
				<path class="s3" d="m49.11 10.37h-7.06q-0.12 0-0.24 0.04-0.11 0.04-0.2 0.12-0.1 0.07-0.16 0.18-0.06 0.1-0.08 0.22l-3.28 16.63q-0.03 0.15 0.01 0.3 0.04 0.15 0.13 0.27 0.1 0.12 0.24 0.18 0.14 0.07 0.3 0.07h3.67q0.12 0 0.24-0.04 0.11-0.04 0.21-0.12 0.09-0.07 0.15-0.18 0.06-0.1 0.09-0.21l0.76-3.87h2.57q2.2-0.01 3.65-0.47 1.49-0.48 2.7-1.6 1-0.91 1.63-2.01 0.62-1.11 0.89-2.43 0.64-3.29-1.04-5.19-1.68-1.88-5.18-1.89zm0 0.69q3.19 0 4.66 1.65 1.46 1.65 0.88 4.61-0.24 1.21-0.82 2.22-0.57 1.01-1.49 1.85-1.1 1.02-2.45 1.45-1.34 0.43-3.43 0.43h-3.14l-0.88 4.42h-3.67l3.28-16.63c0 0 7.06 0 7.06 0zm-5.28 9.59h2.24q2.22 0 3.31-0.83 1.09-0.83 1.47-2.76 0.36-1.85-0.34-2.62-0.69-0.76-2.79-0.76h-2.51c0 0-1.38 6.97-1.38 6.97zm1.95-6.28h1.94c1.56 0 2.1 0.33 2.28 0.53 0.3 0.34 0.36 1.04 0.17 2.03q-0.34 1.68-1.22 2.35-0.9 0.68-2.88 0.68h-1.39c0 0 1.1-5.59 1.1-5.59z"/>
			</g>
		</g>
	</g>
</svg>