<svg version="1.2" xmlns="http://www.w3.org/2000/svg" viewBox="0 0 2576 2756" width="2576" height="2756">
	<style>
		.s0 { fill: #61dafb } 
	</style>
	<g>
		<path class="s0" d="m2509.16 1127.3c0-163.37-204.58-318.19-518.25-414.2 72.39-319.69 40.22-574.04-101.54-655.48-32.68-19.1-70.87-28.15-112.59-28.15v112.1c23.12 0 41.72 4.52 57.3 13.07 68.36 39.21 98.02 188.5 74.89 380.52-5.52 47.25-14.56 97.01-25.63 147.78-98.53-24.13-206.09-42.72-319.19-54.79-67.86-92.99-138.23-177.44-209.11-251.33 163.87-152.31 317.69-235.75 422.24-235.75v-112.1c-138.24 0-319.19 98.52-502.16 269.43-182.98-169.9-363.93-267.42-502.17-267.42v112.1c104.05 0 258.37 82.94 422.24 234.24-70.37 73.89-140.75 157.84-207.61 250.83-113.6 12.07-221.17 30.66-319.69 55.29-11.56-50.26-20.11-99.02-26.14-145.77-23.62-192.02 5.53-341.31 73.4-381.02 15.07-9.05 34.67-13.07 57.8-13.07v-112.1c-42.23 0-80.43 9.05-113.6 28.15-141.25 81.44-172.92 335.28-100.04 653.98-312.65 96.51-516.23 250.83-516.23 413.69 0 163.37 204.58 318.19 518.24 414.2-72.38 319.7-40.21 574.04 101.55 655.48 32.67 19.09 70.87 28.14 113.1 28.14 138.23 0 319.19-98.52 502.16-269.43 182.97 169.91 363.93 267.43 502.17 267.43 42.21 0 80.42-9.05 113.6-28.16 141.24-81.43 172.92-335.28 100.03-653.96 311.65-96.01 515.23-250.83 515.23-413.7zm-654.47-335.28c-18.6 64.85-41.72 131.69-67.86 198.55-20.61-40.2-42.22-80.42-65.85-120.64-23.12-40.21-47.76-79.42-72.39-117.62 71.38 10.56 140.25 23.63 206.1 39.71zm-230.23 535.34c-39.2 67.87-79.41 132.21-121.13 192.03-74.91 6.53-150.8 10.04-227.21 10.04-75.91 0-151.81-3.51-226.2-9.55-41.72-59.82-82.44-123.65-121.65-191.01-38.2-65.85-72.88-132.71-104.56-200.06 31.17-67.36 66.36-134.72 104.07-200.57 39.2-67.85 79.41-132.2 121.13-192.02 74.9-6.53 150.8-10.05 227.21-10.05 75.9 0 151.81 3.52 226.2 9.55 41.72 59.82 82.44 123.66 121.65 191.02 38.2 65.84 72.88 132.7 104.55 200.06-31.67 67.35-66.35 134.71-104.06 200.56zm162.37-65.34q9.89 24.56 19.18 49.36 9.28 24.8 17.96 49.81 8.68 25.02 16.73 50.25 8.06 25.22 15.5 50.63c-65.86 16.09-135.22 29.67-207.1 40.22 24.63-38.7 49.25-78.41 72.39-119.13 23.12-40.21 44.73-80.93 65.34-121.14zm-509.71 536.35c-46.75-48.27-93.5-102.05-139.74-160.86 45.24 2.01 91.49 3.52 138.23 3.52 47.26 0 94-1 139.75-3.52q-16.18 21.02-32.92 41.6-16.74 20.58-34.03 40.7-17.29 20.11-35.11 39.76-17.83 19.64-36.18 38.8zm-373.98-296.08c-71.38-10.55-140.25-23.63-206.09-39.71 18.59-64.85 41.72-131.7 67.86-198.56 20.61 40.22 42.23 80.44 65.84 120.64q35.44 60.32 72.39 117.63zm371.47-1046.05c46.75 48.25 93.5 102.04 139.74 160.85-45.24-2.01-91.48-3.52-138.23-3.52-47.25 0-94 1.01-139.74 3.52q16.18-21.02 32.92-41.6 16.73-20.57 34.02-40.69 17.29-20.12 35.12-39.76 17.82-19.65 36.17-38.8zm-371.98 296.07c-24.63 38.71-49.25 78.42-72.37 119.13-23.12 40.21-44.74 80.43-65.35 120.64q-9.9-24.56-19.19-49.36-9.28-24.8-17.96-49.82-8.67-25.02-16.73-50.24-8.05-25.22-15.49-50.64c65.85-15.58 135.21-29.15 207.09-39.71zm-454.91 629.34c-177.94-75.91-293.05-175.43-293.05-254.35 0-78.92 115.11-178.95 293.05-254.35 43.23-18.6 90.48-35.19 139.24-50.77 28.65 98.52 66.35 201.07 113.1 306.13-46.24 104.55-83.45 206.59-111.59 304.62-49.76-15.59-97.01-32.68-140.75-51.28zm270.44 718.31c-68.36-39.2-98.03-188.5-74.89-380.52 5.53-47.24 14.56-97.02 25.62-147.79 98.53 24.14 206.1 42.74 319.2 54.8 67.86 92.99 138.23 177.43 209.11 251.33-163.87 152.31-317.69 235.75-422.25 235.75-22.61-0.5-41.71-5.03-56.79-13.57zm1192.33-383.03c23.62 192.02-5.53 341.31-73.4 381.02-15.07 9.05-34.67 13.07-57.81 13.07-104.05 0-258.36-82.94-422.23-234.24 70.37-73.9 140.75-157.84 207.6-250.84 113.61-12.06 221.18-30.66 319.7-55.29 11.56 50.77 20.61 99.53 26.14 146.28zm193.52-335.28c-43.23 18.6-90.48 35.19-139.24 50.77-28.65-98.52-66.35-201.06-113.1-306.12 46.25-104.56 83.45-206.6 111.59-304.62 49.77 15.58 97.02 32.67 141.26 51.27 177.94 75.9 293.05 175.43 293.05 254.35-0.51 78.92-115.62 178.95-293.56 254.35z"/>
		<path class="s0" d="m1275.61 1357.02c126.88 0 229.73-102.85 229.73-229.72 0-126.87-102.85-229.72-229.73-229.72-126.86 0-229.71 102.85-229.71 229.72 0 126.87 102.85 229.72 229.71 229.72zm-1120.55 1263.63h-75.84v130.6h-42.79v-322.84h106.87q54.55 0 83.82 24.84 29.49 24.82 29.49 72.27 0 30.16-16.41 52.56-16.19 22.4-45.23 33.48l75.83 137.02v2.67h-45.68zm-75.83-34.81h65.41q31.71 0 50.33-16.41 18.85-16.41 18.85-43.91 0-29.92-17.96-45.89-17.74-15.97-51.44-16.19h-65.19zm330.38 169.85q-48.78 0-79.38-31.93-30.6-32.15-30.6-85.81v-7.54q0-35.69 13.52-63.63 13.75-28.17 38.14-43.9 24.61-15.97 53.22-15.98 46.79 0 72.72 30.83 25.95 30.82 25.94 88.24v17.08h-162.52q0.89 35.48 20.62 57.43 19.96 21.72 50.56 21.73 21.73 0 36.8-8.87 15.08-8.87 26.39-23.5l25.05 19.51q-30.15 46.34-90.46 46.34zm-5.1-215.08q-24.84 0-41.69 18.18-16.85 17.97-20.84 50.56h120.18v-3.1q-1.77-31.27-16.85-48.35-15.09-17.28-40.8-17.29zm294.46 210.64q-3.56-7.09-5.77-25.28-28.61 29.72-68.29 29.72-35.48 0-58.32-19.96-22.61-20.18-22.61-51 0-37.46 28.38-58.08 28.6-20.86 80.26-20.85h39.92v-18.84q-0.01-21.52-12.86-34.15-12.87-12.86-37.93-12.86-21.94 0-36.8 11.08-14.85 11.08-14.86 26.83h-41.24q0.01-17.95 12.64-34.59 12.86-16.85 34.6-26.61 21.94-9.75 48.1-9.76 41.47 0 64.97 20.86 23.5 20.62 24.39 56.97v110.42q0 33.05 8.43 52.55v3.55zm-68.07-31.25q19.29 0 36.59-9.99 17.28-9.97 25.05-25.94v-49.22h-32.15q-75.39 0-75.39 44.12 0 19.29 12.86 30.16 12.86 10.86 33.04 10.87zm263.19 2.21q21.96 0 38.36-13.31 16.41-13.3 18.18-33.26h38.81q-1.11 20.62-14.2 39.25-13.08 18.63-35.03 29.71-21.73 11.09-46.12 11.09-49 0-78.05-32.59-28.82-32.82-28.82-89.59v-6.86q0-35.04 12.86-62.31 12.86-27.28 36.81-42.35 24.16-15.09 56.98-15.09 40.36 0 66.96 24.18 26.83 24.17 28.61 62.74h-38.81q-1.77-23.28-17.74-38.13-15.73-15.08-39.02-15.08-31.26 0-48.56 22.62-17.07 22.39-17.08 64.97v7.75q0.01 41.46 17.08 63.86 17.08 22.4 48.78 22.4zm197.12-268.95v58.08h44.79v31.71h-44.79v148.78q0 14.41 5.99 21.72 5.98 7.11 20.4 7.11 7.09 0 19.5-2.67v33.26q-16.18 4.44-31.48 4.44-27.49 0-41.47-16.63-13.96-16.63-13.96-47.23v-148.78h-43.69v-31.71h43.69v-58.08zm460.1 297.99h-42.81l-162.52-248.77v248.77h-42.79v-322.84h42.79l162.97 249.9v-249.9h42.36zm217.29 0q-3.56-7.09-5.77-25.27-28.6 29.71-68.29 29.71-35.48 0-58.31-19.96-22.62-20.18-22.62-50.99-0.01-37.47 28.38-58.09 28.6-20.86 80.27-20.85h39.91v-18.84q0-21.52-12.87-34.15-12.85-12.86-37.91-12.86-21.95 0-36.8 11.08-14.86 11.08-14.86 26.83h-41.24q0-17.95 12.63-34.59 12.87-16.85 34.6-26.61 21.95-9.75 48.11-9.75 41.46-0.01 64.97 20.85 23.5 20.62 24.39 56.97v110.43q0 33.04 8.43 52.54v3.55zm-68.07-31.25q19.28 0 36.58-9.99 17.28-9.97 25.06-25.94v-49.22h-32.16q-75.39 0-75.39 44.12 0.01 19.29 12.86 30.16 12.86 10.86 33.05 10.87zm222.61-266.74v58.09h44.79v31.7h-44.79v148.78q0 14.41 5.99 21.73 5.98 7.1 20.4 7.1 7.08 0 19.51-2.66v33.25q-16.19 4.44-31.49 4.44-27.49 0-41.47-16.63-13.96-16.63-13.96-47.23v-148.78h-43.68v-31.7h43.68v-58.09zm137.48 297.99h-41.03v-239.9h41.03zm-44.35-303.56q0-9.96 5.99-16.84 6.2-6.88 18.17-6.87 11.99-0.01 18.19 6.87 6.2 6.88 6.2 16.84 0 9.98-6.2 16.64-6.2 6.65-18.19 6.65-11.97 0-18.17-6.65-5.99-6.66-5.99-16.64zm189.36 247.91l59.41-184.26h41.92l-86.03 239.91h-31.27l-86.91-239.91h41.9zm237.25 60.09q-48.78 0-79.38-31.94-30.6-32.15-30.6-85.8v-7.55q0-35.69 13.53-63.63 13.74-28.17 38.13-43.9 24.62-15.97 53.21-15.97 46.79 0 72.74 30.82 25.94 30.82 25.94 88.24v17.08h-162.53q0.89 35.48 20.62 57.43 19.96 21.73 50.55 21.73 21.74 0 36.81-8.87 15.08-8.87 26.39-23.5l25.06 19.51q-30.16 46.34-90.47 46.35zm-5.11-215.08q-24.82 0-41.67 18.17-16.87 17.97-20.84 50.56h120.16v-3.1q-1.77-31.26-16.84-48.35-15.08-17.28-40.81-17.28z"/>
	</g>
</svg>